<svg width="178" height="44" viewBox="0 0 178 44" fill="none" xmlns="http://www.w3.org/2000/svg">
<path d="M114.315 36.0928L113.504 37.8916L113.37 37.8017C113.373 37.734 113.363 37.6664 113.339 37.6041C113.316 37.5418 113.281 37.4864 113.237 37.4419C112.949 37.1583 112.606 36.9599 112.237 36.8637C111.804 36.7098 111.355 36.6318 110.903 36.6324C110.555 36.6277 110.21 36.6884 109.88 36.8123C109.446 36.9922 109.235 37.262 109.235 37.5961C109.232 37.7045 109.262 37.8107 109.318 37.8972C109.375 37.9837 109.455 38.0452 109.546 38.0715C109.933 38.207 110.332 38.2848 110.736 38.3028L111.681 38.3799C112.335 38.4021 112.976 38.5908 113.559 38.9324C113.794 39.0992 113.995 39.3227 114.149 39.5877C114.339 39.9377 114.44 40.3433 114.438 40.757C114.44 41.1341 114.356 41.5052 114.194 41.8325C114.032 42.1597 113.798 42.4315 113.515 42.6201C112.797 43.0982 111.975 43.3258 111.147 43.2754C110.141 43.2757 109.147 43.0213 108.234 42.5301H108.079C108.033 42.5343 107.988 42.5518 107.949 42.581C107.911 42.6102 107.879 42.6501 107.857 42.6971L107.768 42.5173L108.446 40.6285L108.601 40.7056C108.6 40.7643 108.61 40.8227 108.632 40.8761C108.653 40.9296 108.684 40.9767 108.724 41.0139C109.029 41.2705 109.377 41.45 109.746 41.5407C110.219 41.6819 110.704 41.7552 111.192 41.7592C111.569 41.763 111.944 41.6979 112.303 41.5664C112.715 41.4122 112.926 41.1553 112.926 40.8083C112.926 40.4614 112.781 40.3329 112.492 40.2173C112.156 40.1238 111.814 40.0636 111.47 40.0374L110.525 39.9475C110.151 39.918 109.779 39.8579 109.413 39.7676C109.167 39.7022 108.931 39.5939 108.713 39.4464C108.456 39.2626 108.248 39.0002 108.112 38.6883C107.972 38.3653 107.9 38.0088 107.901 37.6475C107.891 37.257 107.973 36.8708 108.14 36.5309C108.307 36.191 108.551 35.9106 108.846 35.7201C109.486 35.2921 110.219 35.0827 110.958 35.1162C111.389 35.1103 111.818 35.1664 112.237 35.2833C112.723 35.4369 113.196 35.6434 113.648 35.9C113.755 35.9678 113.872 36.0115 113.993 36.0285C114.087 36.0172 114.174 35.9669 114.238 35.8872L114.315 36.0928Z" fill="#006C6A"/>
<path d="M119.296 35.1806C120.247 35.1401 121.183 35.4704 121.953 36.1185C122.369 36.4857 122.701 36.9639 122.922 37.5122C123.142 38.0605 123.245 38.6625 123.22 39.2665C123.235 39.8507 123.128 40.4303 122.907 40.9561C122.686 41.4819 122.359 41.9382 121.953 42.2861C121.174 42.897 120.254 43.2236 119.313 43.2236C118.371 43.2236 117.451 42.897 116.672 42.2861C116.259 41.9303 115.926 41.4637 115.704 40.9265C115.481 40.3893 115.375 39.7976 115.394 39.2023C115.365 38.6031 115.466 38.005 115.687 37.4621C115.908 36.9192 116.243 36.4486 116.661 36.0928C117.429 35.4629 118.355 35.1423 119.296 35.1806ZM119.296 36.6325C118.983 36.6163 118.671 36.6765 118.38 36.8094C118.089 36.9423 117.825 37.1447 117.606 37.4034C117.219 37.8934 117.005 38.5327 117.005 39.1959C117.005 39.8591 117.219 40.4983 117.606 40.9883C117.825 41.2471 118.089 41.4495 118.38 41.5823C118.671 41.7152 118.983 41.7755 119.296 41.7592C119.607 41.7737 119.917 41.7125 120.206 41.5797C120.495 41.4469 120.757 41.2454 120.974 40.9883C121.172 40.7567 121.327 40.4814 121.43 40.1789C121.533 39.8764 121.582 39.553 121.575 39.228C121.588 38.8926 121.542 38.5576 121.438 38.2438C121.335 37.9299 121.177 37.6439 120.974 37.4034C120.754 37.1546 120.493 36.9585 120.207 36.8262C119.921 36.6939 119.615 36.6281 119.307 36.6325H119.296Z" fill="#006C6A"/>
<path d="M126.666 41.6565H130.402C130.501 41.6675 130.6 41.6355 130.68 41.5666C130.762 41.4713 130.82 41.3511 130.846 41.2196H131.002V43.4939H130.846C130.818 43.366 130.765 43.2473 130.691 43.147C130.606 43.0793 130.504 43.0475 130.402 43.057H124.688V42.8643C124.801 42.8395 124.905 42.777 124.988 42.6844C125.046 42.5868 125.074 42.4688 125.065 42.3504V36.0929C125.074 35.9785 125.046 35.8644 124.988 35.7717C124.907 35.6764 124.802 35.6134 124.688 35.5918V35.399H127.044V35.5918C126.93 35.6134 126.825 35.6764 126.744 35.7717C126.685 35.8644 126.658 35.9785 126.666 36.0929V41.6565Z" fill="#006C6A"/>
<path d="M139.195 36.0929V40.1789C139.249 40.9077 139.08 41.6353 138.717 42.2347C138.326 42.6345 137.867 42.934 137.368 43.1134C136.87 43.2928 136.345 43.348 135.827 43.2755C135.037 43.3123 134.25 43.1409 133.525 42.7744C133.133 42.5662 132.823 42.1944 132.658 41.7336C132.509 41.2338 132.438 40.7075 132.447 40.1789V36.0929C132.456 35.9785 132.428 35.8644 132.369 35.7717C132.288 35.6764 132.183 35.6134 132.069 35.5918V35.399H134.448V35.5918C134.334 35.6134 134.229 35.6764 134.148 35.7717C134.089 35.8644 134.062 35.9785 134.07 36.0929V39.8062C134.063 40.1391 134.093 40.4717 134.159 40.7956C134.223 41.0192 134.343 41.2159 134.504 41.361C134.917 41.6909 135.414 41.8494 135.916 41.8107C136.417 41.8494 136.914 41.6909 137.327 41.361C137.484 41.2146 137.6 41.018 137.661 40.7956C137.738 40.4738 137.772 40.14 137.761 39.8062V36.0929C137.766 35.9769 137.735 35.8626 137.672 35.7717C137.595 35.6705 137.488 35.6063 137.372 35.5918V35.399H139.595V35.5918C139.481 35.6134 139.376 35.6764 139.295 35.7717C139.228 35.8607 139.193 35.9752 139.195 36.0929Z" fill="#006C6A"/>
<path d="M144.776 36.7353V42.3503C144.767 42.4647 144.795 42.5788 144.854 42.6715C144.936 42.767 145.04 42.8338 145.154 42.8643V43.057H142.797V42.8643C142.907 42.8401 143.008 42.7773 143.086 42.6844C143.149 42.5884 143.18 42.4702 143.175 42.3503V36.7353H141.207C141.103 36.7295 141.001 36.7658 140.918 36.8381C140.844 36.9384 140.791 37.0571 140.763 37.185H140.607V34.8979H140.763C140.781 35.0297 140.836 35.1512 140.918 35.2448C141 35.3191 141.103 35.3557 141.207 35.3476H146.766C146.87 35.3557 146.973 35.3191 147.055 35.2448C147.137 35.1512 147.192 35.0297 147.21 34.8979H147.377V37.185H147.21C147.192 37.0532 147.137 36.9317 147.055 36.8381C146.973 36.7638 146.87 36.7272 146.766 36.7353H144.776Z" fill="#006C6A"/>
<path d="M150.49 36.0929V42.4017C150.485 42.5178 150.516 42.6321 150.579 42.723C150.659 42.8154 150.759 42.8819 150.868 42.9157V43.1084H148.511V42.9157C148.625 42.8941 148.73 42.8311 148.811 42.7358C148.874 42.6399 148.905 42.5217 148.9 42.4017V36.0929C148.906 35.9769 148.874 35.8626 148.811 35.7717C148.73 35.6764 148.625 35.6134 148.511 35.5918V35.399H150.868V35.5918C150.758 35.616 150.657 35.6788 150.579 35.7717C150.516 35.8626 150.485 35.9769 150.49 36.0929Z" fill="#006C6A"/>
<path d="M156.282 35.1804C157.22 35.1392 158.143 35.4602 158.905 36.0927C159.321 36.4599 159.654 36.9381 159.874 37.4864C160.095 38.0347 160.197 38.6367 160.173 39.2407C160.191 39.8291 160.086 40.4139 159.865 40.9445C159.644 41.4751 159.315 41.9356 158.905 42.2859C158.126 42.8969 157.207 43.2235 156.265 43.2235C155.324 43.2235 154.404 42.8969 153.625 42.2859C153.214 41.9279 152.883 41.4609 152.66 40.9243C152.438 40.3876 152.33 39.797 152.346 39.2022C152.324 38.6064 152.429 38.0135 152.652 37.4758C152.875 36.938 153.209 36.4719 153.625 36.1184C154.396 35.4739 155.331 35.1439 156.282 35.1804ZM156.282 36.6324C155.971 36.618 155.661 36.6791 155.372 36.8119C155.082 36.9447 154.821 37.1462 154.603 37.4033C154.216 37.8933 154.002 38.5326 154.002 39.1958C154.002 39.8589 154.216 40.4982 154.603 40.9882C155.057 41.4731 155.653 41.7424 156.271 41.7424C156.889 41.7424 157.484 41.4731 157.938 40.9882C158.136 40.7566 158.291 40.4813 158.394 40.1788C158.497 39.8763 158.546 39.5529 158.539 39.2279C158.552 38.8925 158.505 38.5575 158.402 38.2436C158.299 37.9298 158.141 37.6438 157.938 37.4033C157.497 36.9094 156.907 36.633 156.293 36.6324H156.282Z" fill="#006C6A"/>
<path d="M163.552 37.9688V42.3503C163.544 42.4648 163.572 42.5789 163.63 42.6716C163.713 42.7671 163.817 42.8339 163.93 42.8643V43.057H161.707V42.8643C161.817 42.8401 161.918 42.7773 161.996 42.6844C162.059 42.5885 162.09 42.4703 162.085 42.3503V36.0929C162.09 35.9769 162.059 35.8626 161.996 35.7717C161.918 35.6788 161.817 35.616 161.707 35.5918V35.399H164.264V35.5918C164.086 35.5918 163.997 35.7203 163.997 35.8488C164.007 35.9252 164.029 35.9987 164.063 36.0649C164.098 36.1311 164.143 36.1887 164.197 36.2342L167.766 40.3459V36.0929C167.774 35.9785 167.747 35.8644 167.688 35.7717C167.607 35.6764 167.502 35.6134 167.388 35.5918V35.399H169.611V35.5918C169.497 35.6134 169.392 35.6764 169.311 35.7717C169.252 35.8644 169.225 35.9785 169.233 36.0929V42.4017C169.225 42.5162 169.252 42.6303 169.311 42.723C169.393 42.8185 169.497 42.8853 169.611 42.9157V43.1084H167.221V42.9157C167.399 42.9157 167.488 42.7872 167.488 42.6587C167.486 42.5875 167.462 42.5194 167.421 42.466L167.088 42.0548L163.552 37.9688Z" fill="#006C6A"/>
<path d="M177.682 36.0928L176.87 37.8916L176.737 37.8017C176.739 37.734 176.729 37.6664 176.706 37.6041C176.683 37.5418 176.648 37.4864 176.603 37.4419C176.315 37.1583 175.972 36.9599 175.603 36.8637C175.171 36.7098 174.721 36.6318 174.269 36.6324C173.922 36.6277 173.576 36.6884 173.246 36.8123C172.812 36.9922 172.601 37.262 172.601 37.5961C172.598 37.7045 172.628 37.8107 172.684 37.8972C172.741 37.9837 172.821 38.0452 172.913 38.0715C173.299 38.207 173.699 38.2848 174.102 38.3028L175.047 38.3799C175.701 38.4021 176.342 38.5908 176.926 38.9324C177.161 39.0992 177.362 39.3227 177.515 39.5877C177.706 39.9377 177.806 40.3433 177.804 40.757C177.806 41.1341 177.722 41.5052 177.56 41.8325C177.398 42.1597 177.164 42.4315 176.881 42.6201C176.163 43.0982 175.341 43.3258 174.513 43.2754C173.507 43.2757 172.513 43.0213 171.601 42.5301H171.445C171.399 42.5343 171.354 42.5518 171.316 42.581C171.277 42.6102 171.245 42.6501 171.223 42.6971L171.134 42.5173L171.812 40.6285L171.968 40.7056C171.966 40.7643 171.977 40.8227 171.998 40.8761C172.019 40.9296 172.05 40.9767 172.09 41.0139C172.395 41.2705 172.743 41.45 173.113 41.5407C173.585 41.6819 174.07 41.7552 174.558 41.7592C174.935 41.763 175.31 41.6979 175.669 41.5664C176.081 41.4122 176.292 41.1553 176.292 40.8083C176.292 40.4614 176.148 40.3329 175.858 40.2173C175.523 40.1238 175.18 40.0636 174.836 40.0374L173.891 39.9475C173.517 39.918 173.146 39.8579 172.779 39.7676C172.533 39.7022 172.297 39.5939 172.079 39.4464C171.822 39.2626 171.614 39.0002 171.478 38.6883C171.338 38.3653 171.266 38.0088 171.267 37.6475C171.257 37.257 171.34 36.8708 171.506 36.5309C171.673 36.191 171.917 35.9106 172.212 35.7201C172.853 35.2921 173.585 35.0827 174.324 35.1162C174.755 35.1103 175.184 35.1664 175.603 35.2833C176.089 35.4369 176.562 35.6434 177.015 35.9C177.121 35.9678 177.238 36.0115 177.359 36.0285C177.453 36.0172 177.54 35.9669 177.604 35.8872L177.682 36.0928Z" fill="#006C6A"/>
<path d="M56.8852 11.6026L54.7841 16.3952L54.4061 16.164C54.4108 16.0827 54.4108 16.0011 54.4061 15.9198C54.4061 15.5858 54.1615 15.2131 53.6613 14.8277C52.0873 13.5751 50.2135 12.9236 48.3029 12.9646C47.4864 12.9482 46.6726 13.0783 45.8905 13.35C45.4197 13.5235 44.9949 13.8331 44.6566 14.2495C44.3668 14.5948 44.2001 15.0535 44.1897 15.5344C44.1897 16.2925 44.5899 16.8193 45.3903 17.1019C46.2627 17.316 47.1467 17.462 48.0361 17.5388L50.0594 17.7829C51.0473 17.8861 52.0255 18.0882 52.9831 18.3868C53.6869 18.6328 54.3541 19.0011 54.962 19.479C55.553 19.9824 56.0298 20.6437 56.3516 21.4064C56.6876 22.2069 56.8588 23.0864 56.8518 23.9762C56.8681 25.3843 56.4459 26.7524 55.6623 27.8308C54.7754 28.9565 53.6116 29.7412 52.3272 30.0794C51.1399 30.4584 49.9126 30.6444 48.6809 30.6319C46.2839 30.6155 43.9235 29.9511 41.7884 28.6917C41.5136 28.5239 41.2225 28.3945 40.9213 28.3063C40.7212 28.3546 40.5366 28.4658 40.3877 28.6275L39.9541 28.3834L41.8551 23.3851L42.2331 23.5907V23.7963C42.238 24.0446 42.2903 24.2885 42.3864 24.5107C42.4825 24.7328 42.62 24.9277 42.7889 25.0812C43.5544 25.7787 44.4362 26.2862 45.3792 26.5716C46.4578 26.9708 47.5817 27.183 48.7142 27.2012C49.7195 27.2306 50.718 27.0024 51.638 26.5331C52.0723 26.312 52.4538 25.9726 52.7497 25.5437C52.9992 25.1763 53.1395 24.7257 53.1499 24.2588C53.1644 23.916 53.076 23.578 52.8998 23.3018C52.7236 23.0255 52.4703 22.828 52.1827 22.7426C51.3164 22.4506 50.4258 22.2654 49.5258 22.1901L47.547 21.9589C46.2241 21.7918 45.3236 21.6376 44.7233 21.4963C44.1525 21.3432 43.5999 21.1102 43.078 20.8025C42.3012 20.36 41.658 19.6569 41.2326 18.7852C40.8211 17.9388 40.6138 16.9803 40.6322 16.0098C40.6144 15.2129 40.7429 14.4207 41.0092 13.6854C41.2756 12.9501 41.6737 12.2884 42.1775 11.7439C43.8595 10.1256 46.0207 9.32828 48.2029 9.52104C49.2615 9.50905 50.3177 9.64277 51.349 9.91936C52.5931 10.2927 53.8089 10.7825 54.9842 11.3841C55.2765 11.534 55.5822 11.6461 55.8958 11.7182C56.1325 11.6882 56.3546 11.5711 56.5295 11.3841L56.8852 11.6026Z" fill="#FFAD0D"/>
<path d="M78.4523 11.4484V22.8583C78.5526 24.5563 78.1953 26.2486 77.4295 27.7024C76.1845 29.6297 73.6276 30.5934 69.7589 30.5934C67.5235 30.7462 65.2934 30.2049 63.2999 29.0258C62.4658 28.4699 61.8281 27.5918 61.499 26.5459C61.1757 25.354 61.0328 24.1064 61.0766 22.8583V11.4484C61.0871 11.1965 61.0245 10.9477 60.8987 10.7417C60.7156 10.5519 60.4937 10.4192 60.2539 10.3562V9.8808H65.7457V10.3948C65.5017 10.4441 65.2767 10.5786 65.1009 10.7802C64.9642 10.9805 64.8968 11.2324 64.9119 11.4869V21.6376C64.8928 22.4985 64.9487 23.3594 65.0786 24.2074C65.1754 24.7323 65.3945 25.2166 65.7123 25.608C66.2876 26.1664 66.9539 26.5861 67.6718 26.8421C68.3897 27.0981 69.1447 27.1852 69.8923 27.0984C71.9044 27.0984 73.3163 26.5845 74.1389 25.5694C74.4495 25.1741 74.6643 24.6909 74.7615 24.1689C74.8914 23.3209 74.9473 22.46 74.9282 21.5991V11.4484C74.9412 11.1942 74.8741 10.9431 74.7393 10.7417C74.5596 10.5462 74.3363 10.4127 74.0945 10.3562V9.8808H79.2861V10.3948C79.0443 10.4512 78.8209 10.5848 78.6413 10.7802C78.514 10.9714 78.4473 11.2072 78.4523 11.4484Z" fill="#FFAD0D"/>
<path d="M87.4903 16.2924V28.666C87.4741 28.9186 87.5373 29.1695 87.6681 29.3727C87.8494 29.5655 88.0721 29.6986 88.3129 29.7582V30.2336H83.1436V29.7582C83.3844 29.6986 83.6071 29.5655 83.7883 29.3727C83.9192 29.1695 83.9823 28.9186 83.9662 28.666V11.4355C83.9827 11.1868 83.9194 10.9399 83.7883 10.7417C83.6071 10.5489 83.3844 10.4158 83.1436 10.3562V9.8808H89.1245V10.3948C88.7576 10.5104 88.5686 10.7288 88.5686 11.0758C88.5961 11.3865 88.7278 11.6725 88.9355 11.8724L98.6406 23.5521V11.4741C98.6539 11.2237 98.5866 10.9766 98.4516 10.7802C98.2747 10.5874 98.0556 10.4541 97.8179 10.3948V9.8808H102.976V10.3948C102.738 10.4541 102.519 10.5874 102.343 10.7802C102.208 10.9766 102.14 11.2237 102.154 11.4741V28.666C102.141 28.9202 102.208 29.1713 102.343 29.3727C102.519 29.5655 102.738 29.6988 102.976 29.7582V30.2336H97.4177V29.7582C97.7734 29.6682 97.9624 29.4498 97.9624 29.1157C97.9624 28.7817 97.7512 28.5632 97.3288 28.075L87.4903 16.2924Z" fill="#FFAD0D"/>
<path d="M111.903 21.959V28.7047C111.889 28.9552 111.956 29.2028 112.092 29.3985C112.265 29.5979 112.486 29.7322 112.726 29.784V30.2594H107.245V29.784C107.485 29.721 107.707 29.5883 107.89 29.3985C108.016 29.1973 108.078 28.9526 108.068 28.7047V11.4485C108.078 11.1966 108.016 10.9479 107.89 10.7418C107.707 10.552 107.485 10.4193 107.245 10.3563V9.88093H118.251C119.319 9.85655 120.387 9.94688 121.441 10.1508C122.173 10.3063 122.872 10.6249 123.498 11.0887C124.172 11.6017 124.699 12.3354 125.01 13.196C125.333 14.0595 125.496 14.9919 125.488 15.9328C125.488 19.265 123.895 21.2095 120.708 21.7662L124.121 27.3812C124.506 28.0643 124.949 28.7013 125.444 29.2829C125.727 29.5717 126.088 29.7394 126.466 29.7583V30.2337H120.119V29.7583C120.552 29.6812 120.774 29.5013 120.774 29.2187C120.64 28.7509 120.433 28.3155 120.163 27.9338L116.661 21.959H111.903ZM111.903 18.6054H117.84C118.459 18.6148 119.079 18.5847 119.696 18.5154C120.041 18.4538 120.375 18.3279 120.685 18.1428C121.015 17.9224 121.283 17.5966 121.457 17.2046C121.63 16.8125 121.702 16.3709 121.664 15.9328C121.702 15.4947 121.63 15.0531 121.457 14.661C121.283 14.269 121.015 13.9432 120.685 13.7228C120.376 13.5317 120.042 13.4014 119.696 13.3373C119.079 13.2728 118.459 13.2471 117.84 13.2602H111.903V18.6054Z" fill="#006C6A"/>
<path d="M130.468 28.666V11.4355C130.482 11.1852 130.414 10.938 130.279 10.7417C130.1 10.5462 129.876 10.4127 129.635 10.3562V9.8808H135.126V10.3948C134.882 10.4441 134.657 10.5786 134.481 10.7802C134.349 10.9772 134.285 11.2251 134.304 11.4741V28.666C134.289 28.9205 134.356 29.1724 134.493 29.3727C134.665 29.572 134.886 29.7064 135.126 29.7582V30.2336H129.635V29.7582C129.876 29.7017 130.1 29.5682 130.279 29.3727C130.414 29.1713 130.481 28.9202 130.468 28.666Z" fill="#006C6A"/>
<path d="M155.715 11.6026L153.614 16.3952L153.247 16.164C153.252 16.0827 153.252 16.0011 153.247 15.9198C153.247 15.5858 153.002 15.2131 152.502 14.8277C150.925 13.5725 149.047 12.9209 147.133 12.9646C146.316 12.9482 145.502 13.0783 144.72 13.35C144.249 13.5235 143.825 13.8331 143.486 14.2495C143.196 14.5948 143.03 15.0535 143.019 15.5344C143.019 16.2925 143.42 16.8193 144.22 17.1019C145.092 17.316 145.976 17.462 146.866 17.5388L148.889 17.7829C149.877 17.8861 150.855 18.0881 151.813 18.3868C152.517 18.6328 153.184 19.0011 153.792 19.479C154.383 19.9824 154.859 20.6437 155.181 21.4063C155.605 22.4324 155.764 23.5777 155.64 24.7055C155.516 25.8333 155.113 26.8959 154.481 27.7666C153.598 28.8975 152.432 29.6833 151.146 30.0152C149.958 30.3942 148.731 30.5801 147.499 30.5677C145.102 30.5513 142.742 29.8868 140.607 28.6275C140.332 28.4596 140.041 28.3302 139.74 28.242C139.54 28.2904 139.355 28.4015 139.206 28.5632L138.839 28.3448L140.74 23.3465L141.118 23.5521V23.7577C141.123 24.006 141.176 24.25 141.272 24.4721C141.368 24.6943 141.505 24.8891 141.674 25.0426C142.44 25.7402 143.321 26.2476 144.264 26.5331C145.343 26.9323 146.467 27.1444 147.599 27.1627C148.605 27.1908 149.603 26.9627 150.523 26.4945C150.958 26.2735 151.339 25.934 151.635 25.5052C151.884 25.1378 152.025 24.6872 152.035 24.2203C152.036 23.8956 151.946 23.5793 151.777 23.3195C151.609 23.0598 151.371 22.8708 151.101 22.7812C150.235 22.4892 149.344 22.304 148.444 22.2287L146.377 21.9589C145.043 21.7918 144.153 21.6376 143.553 21.4963C142.982 21.3454 142.429 21.1123 141.908 20.8024C141.131 20.36 140.488 19.6569 140.062 18.7852C139.651 17.9388 139.443 16.9803 139.462 16.0098C139.443 15.2139 139.569 14.4222 139.834 13.687C140.098 12.9518 140.494 12.2895 140.996 11.7439C142.678 10.1256 144.839 9.32828 147.021 9.52104C148.08 9.51014 149.136 9.64384 150.168 9.91936C151.412 10.2927 152.627 10.7825 153.803 11.3841C154.095 11.534 154.401 11.6461 154.714 11.7182C154.951 11.6882 155.173 11.5711 155.348 11.3841L155.715 11.6026Z" fill="#006C6A"/>
<path d="M164.052 21.3036V26.88H175.369C175.581 26.8971 175.791 26.8239 175.959 26.6744C176.125 26.4649 176.241 26.2076 176.292 25.9292H176.692V31.1844H176.281C176.229 30.906 176.114 30.6487 175.948 30.4392C175.779 30.2897 175.57 30.2166 175.358 30.2336H159.383V29.7582C159.624 29.6986 159.847 29.5655 160.028 29.3727C160.159 29.1695 160.222 28.9186 160.206 28.666V11.4484C160.222 11.1958 160.159 10.9449 160.028 10.7417C159.847 10.5489 159.624 10.4158 159.383 10.3562V9.88082H175.058C175.271 9.89547 175.481 9.81756 175.647 9.66238C175.812 9.45612 175.927 9.20361 175.981 8.92999H176.392V14.2495H175.981C175.927 13.9759 175.812 13.7233 175.647 13.5171C175.481 13.3619 175.271 13.284 175.058 13.2986H164.052V18.1042H171.189C171.401 18.1237 171.612 18.0503 171.779 17.8986C171.953 17.6954 172.07 17.4353 172.112 17.1533H172.524V22.2929H172.112C172.067 22.0155 171.951 21.7603 171.779 21.5605C171.613 21.4054 171.403 21.3275 171.189 21.3421L164.052 21.3036Z" fill="#006C6A"/>
<path d="M22.1672 13.9411C22.4254 14.0924 22.6743 14.2641 22.912 14.4551H24.1015C22.8095 12.7859 21.0089 11.7592 19.0767 11.5898L22.1672 13.9411Z" fill="#FFAD0D"/>
<path d="M11.5394 24.6444L11.0503 24.246C11.3755 25.2164 11.8293 26.1223 12.3954 26.9315L12.6734 26.7259C12.2053 26.1033 11.8228 25.4013 11.5394 24.6444Z" fill="#FFAD0D"/>
<path d="M18.0985 29.5526H17.7205L17.0312 30.349C17.4808 30.4666 17.9383 30.5397 18.3986 30.5673H18.6543C18.9172 30.5862 19.1808 30.5862 19.4436 30.5673L18.1318 29.5912L18.0985 29.5526Z" fill="#FFAD0D"/>
<path d="M11.0503 21.1366C11.1534 18.905 11.9788 16.7998 13.3626 15.2389C14.7373 13.722 16.5647 12.8753 18.4653 12.8747H18.5653C19.4094 12.877 20.2473 13.0421 21.0444 13.3629L18.5876 11.5512H18.3541C17.2812 11.5641 16.2212 11.8242 15.2363 12.3162C14.2513 12.8082 13.3611 13.5222 12.6178 14.4166C11.8713 15.3031 11.2892 16.3563 10.9069 17.5117C10.5246 18.6672 10.3502 19.9006 10.3944 21.1366C10.4325 22.0115 10.5747 22.8762 10.8168 23.7064L11.3393 24.1047C11.084 23.1447 10.986 22.1381 11.0503 21.1366Z" fill="#FFAD0D"/>
<path d="M20.1995 29.2572C19.6748 29.4096 19.1388 29.5042 18.5986 29.5399L19.8437 30.465C20.0843 30.4248 20.3221 30.3647 20.5552 30.2851L19.9438 29.5655L20.1995 29.2572Z" fill="#FFAD0D"/>
<path d="M16.5421 29.3728C15.2478 29.0718 14.0533 28.3548 13.0958 27.3041C12.9735 27.1757 12.8624 27.0215 12.7401 26.8801L12.4622 27.0857L12.8513 27.5868C13.9876 28.9728 15.4537 29.9386 17.0646 30.3622L16.3753 29.5656L16.5421 29.3728Z" fill="#FFAD0D"/>
<path d="M26.0469 19.145H25.869C26.0215 19.7897 26.0963 20.4555 26.0914 21.1238C26.0904 22.9099 25.5609 24.6419 24.5906 26.0321L24.8685 26.3533L24.1681 27.1628L23.9236 26.8673L23.6568 27.1628C22.8275 27.9804 21.8737 28.6122 20.8442 29.0259L21.3111 29.5527L20.7441 30.2209C22.0433 29.7449 23.1994 28.854 24.0792 27.6511C25.4376 25.8209 26.1762 23.4837 26.1581 21.0724C26.167 20.4275 26.1298 19.7828 26.0469 19.145Z" fill="#FFAD0D"/>
<path d="M11.3732 24.1564L10.8501 23.7578C10.8501 23.9249 10.9503 24.0792 11.0059 24.2464L11.5401 24.645L11.3732 24.1564Z" fill="#FFAD0D"/>
<path d="M18.4318 29.5526H18.165L19.4768 30.5288L19.8437 30.4646L18.5986 29.5398L18.4318 29.5526Z" fill="#FFAD0D"/>
<path d="M22.1672 13.9403L19.0766 11.5898H18.6208L21.0555 13.3623C21.4403 13.5159 21.8124 13.7094 22.1672 13.9403Z" fill="#FFAD0D"/>
<path d="M12.6291 26.726L12.3508 26.9316L12.4621 27.0858L12.7404 26.8802L12.6291 26.726Z" fill="#FFAD0D"/>
<path d="M24.1349 14.5451L24.0682 14.4551H22.8787C23.1455 14.6607 23.4012 14.8791 23.6457 15.1104C24.7127 16.1799 25.4856 17.5869 25.8691 19.1578H26.047C25.7797 17.4496 25.1192 15.8562 24.1349 14.5451Z" fill="#FFAD0D"/>
<path d="M21.0554 15.3803C20.6174 14.7578 20.0648 14.256 19.4379 13.9115C18.811 13.567 18.1255 13.3884 17.4313 13.3887H17.3646C16.678 13.3995 16.0002 13.57 15.3719 13.8901C14.7435 14.2102 14.1773 14.6733 13.7071 15.2518C13.24 15.8241 12.8803 16.502 12.6507 17.2428C12.4211 17.9835 12.3266 18.7712 12.3731 19.5562C12.4549 20.6294 12.7568 21.6647 13.2536 22.5764C13.7504 23.488 14.428 24.2497 15.2301 24.7986L15.8193 24.3746C15.2117 24.1736 14.6524 23.813 14.1852 23.3209C13.7513 22.8386 13.4163 22.2501 13.2047 21.5987C12.9931 20.9473 12.9103 20.2494 12.9623 19.5562C13.056 18.2346 13.5617 16.9973 14.3853 16.0741C15.2088 15.2044 16.2824 14.7191 17.3979 14.7121H17.4869C18.5935 14.7415 19.6606 15.1932 20.5218 15.997C21.0121 16.4067 21.4151 16.9402 21.7002 17.5569C21.9853 18.1737 22.145 18.8574 22.1671 19.5562V19.6718L22.2783 19.5947C22.2997 18.0696 21.8681 16.5821 21.0554 15.3803Z" fill="#FFAD0D"/>
<path d="M20.5441 23.2438C19.6318 24.0206 18.5409 24.4677 17.4091 24.5287H17.0645C16.7432 24.5277 16.4229 24.489 16.1084 24.4131L15.4414 24.8885C16.0489 25.2679 16.7201 25.4914 17.4091 25.5438H17.6426C18.2816 25.5285 18.9104 25.3542 19.4859 25.0327C20.0615 24.7112 20.5702 24.25 20.9776 23.6807C21.6831 22.6502 22.0983 21.3946 22.1671 20.0829L22.0448 20.1729C21.9016 21.3802 21.3647 22.4787 20.5441 23.2438Z" fill="#FFAD0D"/>
<path d="M15.7979 24.3745L15.208 24.7989L15.4417 24.9404L16.1095 24.4645L15.7979 24.3745Z" fill="#FFAD0D"/>
<path d="M22.0894 20.1736L22.2118 20.0835C22.2118 19.9163 22.2118 19.7619 22.2118 19.5947L22.1005 19.6719C22.1078 19.8392 22.1041 20.0069 22.0894 20.1736Z" fill="#FFAD0D"/>
<path d="M9.6495 21.2008L7.79297 21.4707L9.73843 22.9226L9.6495 21.2008Z" fill="#FFAD0D"/>
<path d="M9.53833 23.1539L7.35941 21.5349L0 22.6399L9.53833 23.1539Z" fill="#FFAD0D"/>
<path d="M9.76064 23.1667L9.7384 22.9226L7.79294 21.4706L7.35938 21.5349L9.5383 23.1539L9.76064 23.1667Z" fill="#FFAD0D"/>
<path d="M32.9839 22.1516L33.8177 22.7807L36.3078 22.6395L32.9839 22.1516Z" fill="#FFAD0D"/>
<path d="M26.6139 21.2008L26.5027 23.166L33.5508 22.7935L32.6392 22.0999L26.6139 21.2008Z" fill="#FFAD0D"/>
<path d="M32.6838 22.1002L33.5954 22.7938H33.8178L32.984 22.1644L32.6838 22.1002Z" fill="#FFAD0D"/>
<path d="M18.9989 11.1529L17.7539 0L17.3425 10.292L18.532 11.1915L18.9989 11.1529Z" fill="#FFAD0D"/>
<path d="M17.3315 10.6004L17.2981 11.2819L18.155 11.2176L17.3315 10.6004Z" fill="#FFAD0D"/>
<path d="M18.5319 11.1911L17.3424 10.2921L17.3313 10.6003L18.1539 11.2168L18.5319 11.1911Z" fill="#FFAD0D"/>
<path d="M13.6182 7.46525L13.0513 5.82059L13.307 7.22112L13.6182 7.46525Z" fill="#FFAD0D"/>
<path d="M14.1075 11.7439L14.9746 11.4226L13.7851 7.9534L13.3738 7.64502L14.1075 11.7439Z" fill="#FFAD0D"/>
<path d="M13.3737 7.64543L13.7854 7.95403L13.6185 7.46541L13.3069 7.2211L13.3737 7.64543Z" fill="#FFAD0D"/>
<path d="M22.1228 11.7697L22.9232 12.258L25.0799 6.7843L22.1228 11.7697Z" fill="#FFAD0D"/>
<path d="M26.8809 19.1315L26.9376 19.1193H26.8809V19.1315Z" fill="#FFAD0D"/>
<path d="M28.6372 18.5283L31.8723 17.4104L28.5928 17.8473L28.6372 18.5283Z" fill="#FFAD0D"/>
<path d="M26.6807 18.1042L26.8808 19.1193H26.9364L28.6373 18.5282L28.5928 17.8472L26.6807 18.1042Z" fill="#FFAD0D"/>
<path d="M31.0495 28.5497L28.2258 26.5845L27.7922 27.0983L31.0495 28.5497Z" fill="#FFAD0D"/>
<path d="M26.1914 26.3918L27.6033 27.0086L27.0363 26.3661L27.3698 25.9807L26.5694 25.4282L26.1914 26.3918Z" fill="#FFAD0D"/>
<path d="M22.1339 30.5935L21.2891 30.9917L21.6115 31.7752L22.6008 32.5073L22.1339 30.5935Z" fill="#FFAD0D"/>
<path d="M22.7006 32.9191L21.8113 32.2638L23.5455 36.414L22.7006 32.9191Z" fill="#FFAD0D"/>
<path d="M22.7008 32.9191L22.6007 32.5079L21.6113 31.7755L21.8114 32.2638L22.7008 32.9191Z" fill="#FFAD0D"/>
<path d="M9.68295 17.6802L4.48022 17.526L9.60513 18.721L9.68295 17.6802Z" fill="#FFAD0D"/>
<path d="M10.1386 26.8287L9.74947 25.8779L5.20264 28.8074L10.1386 26.8287Z" fill="#FFAD0D"/>
<path d="M12.6287 36.2084L15.5302 31.1845L14.7075 30.6962L12.6287 36.2084Z" fill="#FFAD0D"/>
<path d="M17.3648 32.3024L17.7539 32.7649L17.3981 33.1761L17.4982 35.656L17.7539 35.9515L17.5204 36.2342L17.7539 42.0033L18.999 30.8376L17.2981 30.7091L17.3648 32.3024Z" fill="#FFAD0D"/>
<path d="M25.0798 14.4423H27.3032L32.5393 7.72226L25.0798 14.4423Z" fill="#FFAD0D"/>
<path d="M26.0247 16.0869L27.3032 14.4423H26.0469H25.0798L24.8352 14.6735L26.0247 16.0869Z" fill="#FFAD0D"/>
<path d="M13.0957 28.8846L12.0952 27.3298L11.9618 27.4326L5.32495 34.6537V34.7694L13.0957 28.8846Z" fill="#FFAD0D"/>
<path d="M12.0843 27.3041L11.9619 27.4317L12.0955 27.3296L12.0843 27.3041Z" fill="#FFAD0D"/>
<path d="M4.95825 35.0517L5.32552 34.7692V34.6537L4.95825 35.0517Z" fill="#FFAD0D"/>
<path d="M25.013 27.8438L24.2793 28.8846L24.8685 29.5656L24.5683 29.8996L27.4587 32.2767L27.7255 31.9683L28.4259 32.765L28.2592 32.9449L31.1384 35.3219L31.2496 35.2063L25.013 27.8438Z" fill="#FFAD0D"/>
<path d="M10.9612 15.5215L12.1952 14.1595L4.74683 6.8613L10.9612 15.5215Z" fill="#FFAD0D"/>
<path d="M24.8685 26.3662L24.5906 26.0449C24.3828 26.3383 24.16 26.6172 23.9236 26.8801L24.1682 27.1756L24.8685 26.3662Z" fill="#FFAD0D"/>
<path d="M27.6033 27.0085L27.7923 27.0985L28.2259 26.5845L27.3699 25.9806L27.0364 26.3661L27.6033 27.0085Z" fill="#FFAD0D"/>
<path d="M17.7204 29.5526C17.3171 29.5242 16.916 29.4641 16.5198 29.3727L16.353 29.5654L17.0423 30.3617L17.7315 29.5654L17.7204 29.5526Z" fill="#FFAD0D"/>
<path d="M20.8442 29.0387L20.1994 29.2571L19.9326 29.5655L20.5552 30.285H20.7442L21.3111 29.6169L20.8442 29.0387Z" fill="#FFAD0D"/>
<path d="M24.2794 28.8845L23.9348 29.3726L24.5685 29.8992L24.8686 29.5652L24.2794 28.8845Z" fill="#FFAD0D"/>
<path d="M17.3647 32.3024L17.3981 33.1767L17.7543 32.7653L17.3647 32.3024Z" fill="#FFAD0D"/>
<path d="M27.7255 31.9683L27.4587 32.2765L28.2592 32.9444L28.4259 32.7646L27.7255 31.9683Z" fill="#FFAD0D"/>
<path d="M17.498 35.6559L17.5204 36.2347L17.7547 35.9518L17.498 35.6559Z" fill="#FFAD0D"/>
</svg>
