<svg width="178" height="44" viewBox="0 0 178 44" fill="none" xmlns="http://www.w3.org/2000/svg">
<path d="M114.315 36.0928L113.504 37.8917L113.37 37.8017C113.373 37.734 113.363 37.6665 113.339 37.6042C113.316 37.5419 113.281 37.4864 113.237 37.4419C112.949 37.1583 112.606 36.9599 112.237 36.8637C111.804 36.7098 111.355 36.6319 110.903 36.6325C110.555 36.6277 110.21 36.6885 109.88 36.8123C109.446 36.9922 109.235 37.2621 109.235 37.5961C109.232 37.7045 109.262 37.8108 109.318 37.8972C109.375 37.9837 109.455 38.0452 109.546 38.0715C109.933 38.2071 110.332 38.2848 110.736 38.3028L111.681 38.3799C112.335 38.4021 112.976 38.5908 113.559 38.9324C113.794 39.0992 113.995 39.3227 114.149 39.5877C114.339 39.9377 114.44 40.3434 114.438 40.757C114.44 41.1341 114.356 41.5052 114.194 41.8325C114.032 42.1598 113.798 42.4315 113.515 42.6201C112.797 43.0982 111.975 43.3258 111.147 43.2754C110.141 43.2757 109.147 43.0213 108.234 42.5301H108.079C108.033 42.5344 107.988 42.5519 107.949 42.581C107.911 42.6102 107.879 42.6501 107.857 42.6972L107.768 42.5173L108.446 40.6285L108.601 40.7056C108.6 40.7644 108.61 40.8227 108.632 40.8762C108.653 40.9296 108.684 40.9767 108.724 41.014C109.029 41.2705 109.377 41.45 109.746 41.5408C110.219 41.6819 110.704 41.7553 111.192 41.7592C111.569 41.763 111.944 41.698 112.303 41.5665C112.715 41.4123 112.926 41.1553 112.926 40.8084C112.926 40.4615 112.781 40.333 112.492 40.2173C112.156 40.1238 111.814 40.0636 111.47 40.0374L110.525 39.9475C110.151 39.918 109.779 39.8579 109.413 39.7676C109.167 39.7022 108.931 39.5939 108.713 39.4464C108.456 39.2627 108.248 39.0003 108.112 38.6883C107.972 38.3654 107.9 38.0088 107.901 37.6475C107.891 37.2571 107.973 36.8708 108.14 36.5309C108.307 36.1911 108.551 35.9106 108.846 35.7202C109.486 35.2921 110.219 35.0827 110.958 35.1163C111.389 35.1103 111.818 35.1664 112.237 35.2833C112.723 35.4369 113.196 35.6434 113.648 35.9001C113.755 35.9679 113.872 36.0115 113.993 36.0286C114.087 36.0172 114.174 35.967 114.238 35.8872L114.315 36.0928Z" fill="white"/>
<path d="M119.296 35.1806C120.247 35.1401 121.183 35.4704 121.953 36.1185C122.368 36.4857 122.701 36.9639 122.922 37.5122C123.142 38.0605 123.245 38.6625 123.22 39.2665C123.235 39.8507 123.128 40.4303 122.907 40.9561C122.686 41.4819 122.359 41.9382 121.953 42.2861C121.173 42.897 120.254 43.2236 119.312 43.2236C118.371 43.2236 117.451 42.897 116.672 42.2861C116.259 41.9303 115.926 41.4637 115.704 40.9265C115.481 40.3893 115.374 39.7976 115.394 39.2023C115.365 38.6031 115.465 38.005 115.687 37.4621C115.908 36.9192 116.243 36.4486 116.661 36.0928C117.429 35.4629 118.355 35.1423 119.296 35.1806ZM119.296 36.6325C118.983 36.6163 118.671 36.6765 118.379 36.8094C118.088 36.9423 117.825 37.1447 117.606 37.4034C117.219 37.8934 117.005 38.5327 117.005 39.1959C117.005 39.8591 117.219 40.4983 117.606 40.9883C117.825 41.2471 118.088 41.4495 118.379 41.5823C118.671 41.7152 118.983 41.7755 119.296 41.7592C119.606 41.7737 119.917 41.7125 120.206 41.5797C120.495 41.4469 120.757 41.2454 120.974 40.9883C121.172 40.7567 121.327 40.4814 121.43 40.1789C121.533 39.8764 121.582 39.553 121.575 39.228C121.588 38.8926 121.541 38.5576 121.438 38.2438C121.335 37.9299 121.177 37.6439 120.974 37.4034C120.754 37.1546 120.493 36.9585 120.207 36.8262C119.921 36.6939 119.615 36.6281 119.307 36.6325H119.296Z" fill="white"/>
<path d="M126.666 41.6565H130.402C130.501 41.6675 130.6 41.6355 130.68 41.5666C130.762 41.4713 130.82 41.3511 130.846 41.2196H131.002V43.4939H130.846C130.818 43.366 130.765 43.2473 130.691 43.147C130.606 43.0793 130.504 43.0475 130.402 43.057H124.688V42.8643C124.801 42.8395 124.905 42.777 124.988 42.6844C125.046 42.5868 125.074 42.4688 125.065 42.3504V36.0929C125.074 35.9785 125.046 35.8644 124.988 35.7717C124.907 35.6764 124.802 35.6134 124.688 35.5918V35.399H127.044V35.5918C126.93 35.6134 126.825 35.6764 126.744 35.7717C126.685 35.8644 126.658 35.9785 126.666 36.0929V41.6565Z" fill="white"/>
<path d="M139.195 36.0929V40.1789C139.249 40.9077 139.08 41.6353 138.717 42.2347C138.327 42.6345 137.867 42.934 137.369 43.1134C136.87 43.2928 136.345 43.348 135.827 43.2755C135.037 43.3123 134.25 43.1409 133.526 42.7744C133.133 42.5662 132.824 42.1944 132.659 41.7336C132.509 41.2338 132.438 40.7075 132.447 40.1789V36.0929C132.456 35.9785 132.428 35.8644 132.369 35.7717C132.288 35.6764 132.183 35.6134 132.069 35.5918V35.399H134.448V35.5918C134.334 35.6134 134.229 35.6764 134.148 35.7717C134.09 35.8644 134.062 35.9785 134.07 36.0929V39.8062C134.063 40.1391 134.093 40.4717 134.159 40.7956C134.223 41.0192 134.343 41.2159 134.504 41.361C134.917 41.6909 135.415 41.8494 135.916 41.8107C136.417 41.8494 136.914 41.6909 137.328 41.361C137.485 41.2146 137.601 41.018 137.661 40.7956C137.738 40.4738 137.772 40.14 137.761 39.8062V36.0929C137.767 35.9769 137.735 35.8626 137.672 35.7717C137.595 35.6705 137.488 35.6063 137.372 35.5918V35.399H139.595V35.5918C139.481 35.6134 139.376 35.6764 139.295 35.7717C139.229 35.8607 139.193 35.9752 139.195 36.0929Z" fill="white"/>
<path d="M144.776 36.7353V42.3503C144.767 42.4647 144.795 42.5788 144.854 42.6715C144.936 42.767 145.04 42.8338 145.154 42.8643V43.057H142.797V42.8643C142.907 42.8401 143.008 42.7773 143.086 42.6844C143.149 42.5884 143.18 42.4702 143.175 42.3503V36.7353H141.207C141.103 36.7295 141.001 36.7658 140.918 36.8381C140.844 36.9384 140.791 37.0571 140.763 37.185H140.607V34.8979H140.763C140.781 35.0297 140.836 35.1512 140.918 35.2448C141 35.3191 141.103 35.3557 141.207 35.3476H146.766C146.87 35.3557 146.973 35.3191 147.055 35.2448C147.137 35.1512 147.192 35.0297 147.21 34.8979H147.377V37.185H147.21C147.192 37.0532 147.137 36.9317 147.055 36.8381C146.973 36.7638 146.87 36.7272 146.766 36.7353H144.776Z" fill="white"/>
<path d="M150.49 36.0929V42.4017C150.485 42.5178 150.516 42.6321 150.579 42.723C150.659 42.8154 150.759 42.8819 150.868 42.9157V43.1084H148.511V42.9157C148.625 42.8941 148.73 42.8311 148.811 42.7358C148.874 42.6399 148.905 42.5217 148.9 42.4017V36.0929C148.906 35.9769 148.874 35.8626 148.811 35.7717C148.73 35.6764 148.625 35.6134 148.511 35.5918V35.399H150.868V35.5918C150.758 35.616 150.657 35.6788 150.579 35.7717C150.516 35.8626 150.485 35.9769 150.49 36.0929Z" fill="white"/>
<path d="M156.282 35.1805C157.22 35.1392 158.143 35.4602 158.906 36.0927C159.321 36.4599 159.654 36.9381 159.875 37.4864C160.095 38.0347 160.198 38.6367 160.173 39.2408C160.192 39.8292 160.086 40.414 159.865 40.9446C159.644 41.4752 159.315 41.9356 158.906 42.286C158.127 42.8969 157.207 43.2235 156.265 43.2235C155.324 43.2235 154.404 42.8969 153.625 42.286C153.214 41.928 152.883 41.461 152.66 40.9243C152.438 40.3876 152.33 39.797 152.347 39.2022C152.325 38.6064 152.43 38.0136 152.653 37.4758C152.876 36.938 153.21 36.4719 153.625 36.1184C154.396 35.4739 155.331 35.144 156.282 35.1805ZM156.282 36.6324C155.971 36.618 155.661 36.6792 155.372 36.812C155.083 36.9448 154.821 37.1462 154.603 37.4033C154.217 37.8933 154.002 38.5326 154.002 39.1958C154.002 39.859 154.217 40.4982 154.603 40.9882C155.057 41.4731 155.653 41.7425 156.271 41.7425C156.889 41.7425 157.484 41.4731 157.938 40.9882C158.136 40.7566 158.291 40.4813 158.394 40.1788C158.497 39.8763 158.546 39.5529 158.539 39.2279C158.552 38.8925 158.506 38.5575 158.402 38.2437C158.299 37.9298 158.141 37.6438 157.938 37.4033C157.497 36.9095 156.907 36.633 156.293 36.6324H156.282Z" fill="white"/>
<path d="M163.552 37.9688V42.3503C163.544 42.4648 163.572 42.5789 163.63 42.6716C163.713 42.7671 163.817 42.8339 163.93 42.8643V43.057H161.707V42.8643C161.817 42.8401 161.918 42.7773 161.996 42.6844C162.059 42.5885 162.09 42.4703 162.085 42.3503V36.0929C162.09 35.9769 162.059 35.8626 161.996 35.7717C161.918 35.6788 161.817 35.616 161.707 35.5918V35.399H164.264V35.5918C164.086 35.5918 163.997 35.7203 163.997 35.8488C164.007 35.9252 164.029 35.9987 164.063 36.0649C164.098 36.1311 164.143 36.1887 164.197 36.2342L167.766 40.3459V36.0929C167.774 35.9785 167.747 35.8644 167.688 35.7717C167.607 35.6764 167.502 35.6134 167.388 35.5918V35.399H169.611V35.5918C169.497 35.6134 169.392 35.6764 169.311 35.7717C169.252 35.8644 169.225 35.9785 169.233 36.0929V42.4017C169.225 42.5162 169.252 42.6303 169.311 42.723C169.393 42.8185 169.497 42.8853 169.611 42.9157V43.1084H167.221V42.9157C167.399 42.9157 167.488 42.7872 167.488 42.6587C167.486 42.5875 167.462 42.5194 167.421 42.466L167.088 42.0548L163.552 37.9688Z" fill="white"/>
<path d="M114.548 36.0928L113.736 37.8917L113.603 37.8017C113.606 37.734 113.595 37.6665 113.572 37.6042C113.549 37.5419 113.514 37.4864 113.47 37.4419C113.181 37.1583 112.838 36.9599 112.469 36.8637C112.037 36.7098 111.587 36.6319 111.135 36.6325C110.788 36.6277 110.442 36.6885 110.112 36.8123C109.679 36.9922 109.467 37.2621 109.467 37.5961C109.465 37.7045 109.494 37.8108 109.551 37.8972C109.607 37.9837 109.688 38.0452 109.779 38.0715C110.165 38.2071 110.565 38.2848 110.968 38.3028L111.913 38.3799C112.567 38.4021 113.208 38.5908 113.792 38.9324C114.027 39.0992 114.228 39.3227 114.381 39.5877C114.572 39.9377 114.672 40.3434 114.67 40.757C114.673 41.1341 114.588 41.5052 114.426 41.8325C114.264 42.1598 114.03 42.4315 113.747 42.6201C113.029 43.0982 112.207 43.3258 111.38 43.2754C110.373 43.2757 109.379 43.0213 108.467 42.5301H108.311C108.265 42.5344 108.221 42.5519 108.182 42.581C108.143 42.6102 108.111 42.6501 108.089 42.6972L108 42.5173L108.678 40.6285L108.834 40.7056C108.832 40.7644 108.843 40.8227 108.864 40.8762C108.885 40.9296 108.917 40.9767 108.956 41.014C109.261 41.2705 109.61 41.45 109.979 41.5408C110.451 41.6819 110.936 41.7553 111.424 41.7592C111.801 41.763 112.176 41.698 112.536 41.5665C112.947 41.4123 113.158 41.1553 113.158 40.8084C113.158 40.4615 113.014 40.333 112.725 40.2173C112.389 40.1238 112.047 40.0636 111.702 40.0374L110.757 39.9475C110.383 39.918 110.012 39.8579 109.645 39.7676C109.399 39.7022 109.163 39.5939 108.945 39.4464C108.688 39.2627 108.48 39.0003 108.345 38.6883C108.204 38.3654 108.132 38.0088 108.133 37.6475C108.123 37.2571 108.206 36.8708 108.372 36.5309C108.539 36.1911 108.783 35.9106 109.078 35.7202C109.719 35.2921 110.451 35.0827 111.191 35.1163C111.621 35.1103 112.051 35.1664 112.469 35.2833C112.955 35.4369 113.428 35.6434 113.881 35.9001C113.988 35.9679 114.105 36.0115 114.225 36.0286C114.319 36.0172 114.406 35.967 114.47 35.8872L114.548 36.0928Z" fill="white"/>
<path d="M177.548 36.0928L176.736 37.8917L176.603 37.8017C176.606 37.734 176.595 37.6665 176.572 37.6042C176.549 37.5419 176.514 37.4864 176.47 37.4419C176.181 37.1583 175.838 36.9599 175.469 36.8637C175.037 36.7098 174.587 36.6319 174.135 36.6325C173.788 36.6277 173.442 36.6885 173.112 36.8123C172.679 36.9922 172.467 37.2621 172.467 37.5961C172.465 37.7045 172.494 37.8108 172.551 37.8972C172.607 37.9837 172.688 38.0452 172.779 38.0715C173.165 38.2071 173.565 38.2848 173.968 38.3028L174.913 38.3799C175.567 38.4021 176.208 38.5908 176.792 38.9324C177.027 39.0992 177.228 39.3227 177.381 39.5877C177.572 39.9377 177.672 40.3434 177.67 40.757C177.673 41.1341 177.588 41.5052 177.426 41.8325C177.264 42.1598 177.03 42.4315 176.747 42.6201C176.029 43.0982 175.207 43.3258 174.38 43.2754C173.373 43.2757 172.379 43.0213 171.467 42.5301H171.311C171.265 42.5344 171.221 42.5519 171.182 42.581C171.143 42.6102 171.111 42.6501 171.089 42.6972L171 42.5173L171.678 40.6285L171.834 40.7056C171.832 40.7644 171.843 40.8227 171.864 40.8762C171.885 40.9296 171.917 40.9767 171.956 41.014C172.261 41.2705 172.61 41.45 172.979 41.5408C173.451 41.6819 173.936 41.7553 174.424 41.7592C174.801 41.763 175.176 41.698 175.536 41.5665C175.947 41.4123 176.158 41.1553 176.158 40.8084C176.158 40.4615 176.014 40.333 175.725 40.2173C175.389 40.1238 175.047 40.0636 174.702 40.0374L173.757 39.9475C173.383 39.918 173.012 39.8579 172.645 39.7676C172.399 39.7022 172.163 39.5939 171.945 39.4464C171.688 39.2627 171.48 39.0003 171.345 38.6883C171.204 38.3654 171.132 38.0088 171.133 37.6475C171.123 37.2571 171.206 36.8708 171.372 36.5309C171.539 36.1911 171.783 35.9106 172.078 35.7202C172.719 35.2921 173.451 35.0827 174.191 35.1163C174.621 35.1103 175.051 35.1664 175.469 35.2833C175.955 35.4369 176.428 35.6434 176.881 35.9001C176.988 35.9679 177.105 36.0115 177.225 36.0286C177.319 36.0172 177.406 35.967 177.47 35.8872L177.548 36.0928Z" fill="white"/>
<path d="M56.8852 11.6026L54.7841 16.3952L54.4061 16.164C54.4108 16.0827 54.4108 16.0011 54.4061 15.9198C54.4061 15.5858 54.1615 15.2131 53.6613 14.8277C52.0873 13.5751 50.2135 12.9236 48.3029 12.9646C47.4864 12.9482 46.6726 13.0783 45.8905 13.35C45.4197 13.5235 44.9949 13.8331 44.6566 14.2495C44.3668 14.5948 44.2001 15.0535 44.1897 15.5344C44.1897 16.2925 44.5899 16.8193 45.3903 17.1019C46.2627 17.316 47.1467 17.462 48.0361 17.5388L50.0594 17.7829C51.0473 17.8861 52.0255 18.0882 52.9831 18.3868C53.6869 18.6328 54.3541 19.0011 54.962 19.479C55.553 19.9824 56.0298 20.6437 56.3516 21.4064C56.6876 22.2069 56.8588 23.0864 56.8518 23.9762C56.8681 25.3843 56.4459 26.7524 55.6623 27.8308C54.7754 28.9565 53.6116 29.7412 52.3272 30.0794C51.1399 30.4584 49.9126 30.6444 48.6809 30.6319C46.2839 30.6155 43.9235 29.9511 41.7884 28.6917C41.5136 28.5239 41.2225 28.3945 40.9213 28.3063C40.7212 28.3546 40.5366 28.4658 40.3877 28.6275L39.9541 28.3834L41.8551 23.3851L42.2331 23.5907V23.7963C42.238 24.0446 42.2903 24.2885 42.3864 24.5107C42.4825 24.7328 42.62 24.9277 42.7889 25.0812C43.5544 25.7787 44.4362 26.2862 45.3792 26.5716C46.4578 26.9708 47.5817 27.183 48.7142 27.2012C49.7195 27.2306 50.718 27.0024 51.638 26.5331C52.0723 26.312 52.4538 25.9726 52.7497 25.5437C52.9992 25.1763 53.1395 24.7257 53.1499 24.2588C53.1644 23.916 53.076 23.578 52.8998 23.3018C52.7236 23.0255 52.4703 22.828 52.1827 22.7426C51.3164 22.4506 50.4258 22.2654 49.5258 22.1901L47.547 21.9589C46.2241 21.7918 45.3236 21.6376 44.7233 21.4963C44.1525 21.3432 43.5999 21.1102 43.078 20.8025C42.3012 20.36 41.658 19.6569 41.2326 18.7852C40.8211 17.9388 40.6138 16.9803 40.6322 16.0098C40.6144 15.2129 40.7429 14.4207 41.0092 13.6854C41.2756 12.9501 41.6737 12.2884 42.1775 11.7439C43.8595 10.1256 46.0207 9.32828 48.2029 9.52104C49.2615 9.50905 50.3177 9.64277 51.349 9.91936C52.5931 10.2927 53.8089 10.7825 54.9842 11.3841C55.2765 11.534 55.5822 11.6461 55.8958 11.7182C56.1325 11.6882 56.3546 11.5711 56.5295 11.3841L56.8852 11.6026Z" fill="#FFAD0D"/>
<path d="M78.4523 11.4484V22.8583C78.5526 24.5563 78.1953 26.2486 77.4295 27.7024C76.1845 29.6297 73.6276 30.5934 69.7589 30.5934C67.5235 30.7462 65.2934 30.2049 63.2999 29.0258C62.4658 28.4699 61.8281 27.5918 61.499 26.5459C61.1757 25.354 61.0328 24.1064 61.0766 22.8583V11.4484C61.0871 11.1965 61.0245 10.9477 60.8987 10.7417C60.7156 10.5519 60.4937 10.4192 60.2539 10.3562V9.8808H65.7457V10.3948C65.5017 10.4441 65.2767 10.5786 65.1009 10.7802C64.9642 10.9805 64.8968 11.2324 64.9119 11.4869V21.6376C64.8928 22.4985 64.9487 23.3594 65.0786 24.2074C65.1754 24.7323 65.3945 25.2166 65.7123 25.608C66.2876 26.1664 66.9539 26.5861 67.6718 26.8421C68.3897 27.0981 69.1447 27.1852 69.8923 27.0984C71.9044 27.0984 73.3163 26.5845 74.1389 25.5694C74.4495 25.1741 74.6643 24.6909 74.7615 24.1689C74.8914 23.3209 74.9473 22.46 74.9282 21.5991V11.4484C74.9412 11.1942 74.8741 10.9431 74.7393 10.7417C74.5596 10.5462 74.3363 10.4127 74.0945 10.3562V9.8808H79.2861V10.3948C79.0443 10.4512 78.8209 10.5848 78.6413 10.7802C78.514 10.9714 78.4473 11.2072 78.4523 11.4484Z" fill="#FFAD0D"/>
<path d="M87.4903 16.2924V28.666C87.4741 28.9186 87.5373 29.1695 87.6681 29.3727C87.8494 29.5655 88.0721 29.6986 88.3129 29.7582V30.2336H83.1436V29.7582C83.3844 29.6986 83.6071 29.5655 83.7883 29.3727C83.9192 29.1695 83.9823 28.9186 83.9662 28.666V11.4355C83.9827 11.1868 83.9194 10.9399 83.7883 10.7417C83.6071 10.5489 83.3844 10.4158 83.1436 10.3562V9.8808H89.1245V10.3948C88.7576 10.5104 88.5686 10.7288 88.5686 11.0758C88.5961 11.3865 88.7278 11.6725 88.9355 11.8724L98.6406 23.5521V11.4741C98.6539 11.2237 98.5866 10.9766 98.4516 10.7802C98.2747 10.5874 98.0556 10.4541 97.8179 10.3948V9.8808H102.976V10.3948C102.738 10.4541 102.519 10.5874 102.343 10.7802C102.208 10.9766 102.14 11.2237 102.154 11.4741V28.666C102.141 28.9202 102.208 29.1713 102.343 29.3727C102.519 29.5655 102.738 29.6988 102.976 29.7582V30.2336H97.4177V29.7582C97.7734 29.6682 97.9624 29.4498 97.9624 29.1157C97.9624 28.7817 97.7512 28.5632 97.3288 28.075L87.4903 16.2924Z" fill="#FFAD0D"/>
<path d="M111.903 22.0819V28.8276C111.889 29.0781 111.956 29.3257 112.092 29.5215C112.265 29.7208 112.486 29.8552 112.726 29.907V30.3824H107.245V29.907C107.485 29.844 107.707 29.7113 107.89 29.5215C108.016 29.3203 108.078 29.0756 108.068 28.8276V11.5715C108.078 11.3196 108.016 11.0708 107.89 10.8648C107.707 10.675 107.485 10.5423 107.245 10.4793V10.0039H118.251C119.319 9.97951 120.387 10.0698 121.441 10.2737C122.173 10.4293 122.872 10.7478 123.498 11.2117C124.172 11.7247 124.699 12.4584 125.01 13.3189C125.333 14.1825 125.496 15.1149 125.488 16.0558C125.488 19.3879 123.895 21.3324 120.708 21.8892L124.121 27.5042C124.506 28.1872 124.949 28.8242 125.444 29.4059C125.727 29.6946 126.088 29.8624 126.466 29.8813V30.3567H120.119V29.8813C120.552 29.8042 120.774 29.6243 120.774 29.3416C120.64 28.8739 120.433 28.4384 120.163 28.0567L116.661 22.0819H111.903ZM111.903 18.7283H117.84C118.459 18.7377 119.079 18.7077 119.696 18.6384C120.041 18.5767 120.375 18.4509 120.685 18.2658C121.015 18.0454 121.283 17.7196 121.457 17.3275C121.63 16.9355 121.702 16.4939 121.664 16.0558C121.702 15.6176 121.63 15.176 121.457 14.784C121.283 14.392 121.015 14.0662 120.685 13.8457C120.376 13.6547 120.042 13.5244 119.696 13.4603C119.079 13.3958 118.459 13.37 117.84 13.3832H111.903V18.7283Z" fill="white"/>
<path d="M130.834 28.7852V11.5547C130.847 11.3044 130.78 11.0572 130.645 10.8609C130.465 10.6654 130.242 10.5319 130 10.4754V10H135.492V10.514C135.248 10.5633 135.023 10.6978 134.847 10.8994C134.714 11.0964 134.65 11.3443 134.669 11.5933V28.7852C134.654 29.0397 134.721 29.2916 134.858 29.4919C135.031 29.6912 135.252 29.8256 135.492 29.8774V30.3528H130V29.8774C130.242 29.8209 130.465 29.6874 130.645 29.4919C130.78 29.2905 130.847 29.0394 130.834 28.7852Z" fill="white"/>
<path d="M155.876 12.1098L153.774 16.9025L153.408 16.6712C153.412 16.5899 153.412 16.5084 153.408 16.4271C153.408 16.093 153.163 15.7204 152.663 15.3349C151.086 14.0798 149.208 13.4282 147.293 13.4718C146.477 13.4555 145.663 13.5855 144.881 13.8573C144.41 14.0307 143.985 14.3403 143.647 14.7567C143.357 15.102 143.19 15.5607 143.18 16.0416C143.18 16.7997 143.58 17.3265 144.381 17.6092C145.253 17.8233 146.137 17.9692 147.026 18.0461L149.05 18.2902C150.038 18.3934 151.016 18.5954 151.973 18.8941C152.677 19.1401 153.344 19.5083 153.952 19.9863C154.543 20.4896 155.02 21.1509 155.342 21.9136C155.766 22.9396 155.925 24.0849 155.801 25.2127C155.676 26.3405 155.274 27.4032 154.642 28.2739C153.758 29.4048 152.593 30.1905 151.306 30.5224C150.119 30.9014 148.892 31.0874 147.66 31.0749C145.263 31.0585 142.903 30.3941 140.768 29.1347C140.493 28.9669 140.202 28.8375 139.9 28.7493C139.7 28.7976 139.516 28.9088 139.367 29.0705L139 28.8521L140.901 23.8538L141.279 24.0594V24.265C141.284 24.5133 141.336 24.7573 141.432 24.9794C141.528 25.2016 141.666 25.3964 141.835 25.5499C142.6 26.2475 143.482 26.7549 144.425 27.0404C145.504 27.4395 146.628 27.6517 147.76 27.67C148.765 27.698 149.764 27.4699 150.684 27.0018C151.118 26.7808 151.5 26.4413 151.796 26.0124C152.045 25.645 152.185 25.1944 152.196 24.7275C152.197 24.4028 152.106 24.0866 151.938 23.8268C151.769 23.5671 151.532 23.378 151.262 23.2885C150.396 22.9964 149.505 22.8112 148.605 22.7359L146.537 22.4661C145.203 22.2991 144.314 22.1449 143.714 22.0036C143.142 21.8526 142.589 21.6195 142.068 21.3097C141.292 20.8673 140.648 20.1642 140.223 19.2924C139.811 18.4461 139.604 17.4876 139.623 16.517C139.603 15.7211 139.73 14.9295 139.994 14.1943C140.259 13.459 140.655 12.7968 141.157 12.2512C142.839 10.6329 145 9.83555 147.182 10.0283C148.241 10.0174 149.297 10.1511 150.328 10.4266C151.572 10.7999 152.788 11.2898 153.963 11.8914C154.256 12.0413 154.561 12.1533 154.875 12.2255C155.112 12.1954 155.334 12.0783 155.509 11.8914L155.876 12.1098Z" fill="white"/>
<path d="M164.669 21.3736V26.95H175.986C176.198 26.9671 176.407 26.8939 176.575 26.7444C176.742 26.5349 176.857 26.2776 176.909 25.9992H177.309V31.2544H176.898C176.846 30.976 176.731 30.7187 176.564 30.5092C176.396 30.3597 176.187 30.2866 175.975 30.3036H160V29.8282C160.241 29.7686 160.464 29.6355 160.645 29.4427C160.776 29.2395 160.839 28.9887 160.823 28.736V11.5184C160.839 11.2658 160.776 11.0149 160.645 10.8117C160.464 10.6189 160.241 10.4858 160 10.4262V9.95082H175.675C175.888 9.96547 176.098 9.88757 176.264 9.73239C176.429 9.52613 176.544 9.27361 176.598 9H177.009V14.3195H176.598C176.544 14.0459 176.429 13.7934 176.264 13.5871C176.098 13.4319 175.888 13.354 175.675 13.3687H164.669V18.1742H171.806C172.018 18.1937 172.228 18.1203 172.395 17.9686C172.57 17.7654 172.686 17.5053 172.729 17.2233H173.14V22.3629H172.729C172.684 22.0856 172.568 21.8303 172.395 21.6305C172.229 21.4754 172.019 21.3975 171.806 21.4121L164.669 21.3736Z" fill="white"/>
<path d="M22.1672 13.9411C22.4254 14.0924 22.6743 14.2641 22.912 14.4551H24.1015C22.8095 12.7859 21.0089 11.7592 19.0767 11.5898L22.1672 13.9411Z" fill="#FFAD0D"/>
<path d="M11.5394 24.6444L11.0503 24.246C11.3755 25.2164 11.8293 26.1223 12.3954 26.9315L12.6734 26.7259C12.2053 26.1033 11.8228 25.4013 11.5394 24.6444Z" fill="#FFAD0D"/>
<path d="M18.0985 29.5526H17.7205L17.0312 30.349C17.4808 30.4666 17.9383 30.5397 18.3986 30.5673H18.6543C18.9172 30.5861 19.1808 30.5861 19.4436 30.5673L18.1318 29.5911L18.0985 29.5526Z" fill="#FFAD0D"/>
<path d="M11.0503 21.1366C11.1534 18.9049 11.9788 16.7997 13.3626 15.2389C14.7373 13.722 16.5647 12.8753 18.4653 12.8747H18.5653C19.4094 12.877 20.2473 13.042 21.0444 13.3629L18.5876 11.5512H18.3541C17.2812 11.5641 16.2212 11.8242 15.2363 12.3161C14.2513 12.8081 13.3611 13.5222 12.6178 14.4165C11.8713 15.3031 11.2892 16.3563 10.9069 17.5117C10.5246 18.6671 10.3502 19.9006 10.3944 21.1366C10.4325 22.0115 10.5747 22.8762 10.8168 23.7063L11.3393 24.1047C11.084 23.1447 10.986 22.1381 11.0503 21.1366Z" fill="#FFAD0D"/>
<path d="M20.1995 29.2572C19.6748 29.4096 19.1388 29.5043 18.5986 29.5399L19.8437 30.465C20.0843 30.4248 20.3221 30.3647 20.5552 30.2851L19.9438 29.5656L20.1995 29.2572Z" fill="#FFAD0D"/>
<path d="M16.5418 29.3728C15.2475 29.0718 14.053 28.3548 13.0956 27.3041C12.9733 27.1757 12.8621 27.0215 12.7398 26.8801L12.4619 27.0857L12.851 27.5868C13.9873 28.9728 15.4535 29.9386 17.0643 30.3622L16.3751 29.5656L16.5418 29.3728Z" fill="#FFAD0D"/>
<path d="M26.0469 19.145H25.869C26.0215 19.7897 26.0963 20.4555 26.0914 21.1238C26.0904 22.9099 25.5609 24.6419 24.5906 26.0321L24.8685 26.3533L24.1681 27.1628L23.9236 26.8673L23.6568 27.1628C22.8275 27.9804 21.8737 28.6122 20.8442 29.0259L21.3111 29.5527L20.7441 30.2209C22.0433 29.7449 23.1994 28.854 24.0792 27.6511C25.4376 25.8209 26.1762 23.4837 26.1581 21.0724C26.167 20.4275 26.1298 19.7828 26.0469 19.145Z" fill="#FFAD0D"/>
<path d="M11.3732 24.1564L10.8501 23.7578C10.8501 23.9249 10.9503 24.0792 11.0059 24.2464L11.5401 24.645L11.3732 24.1564Z" fill="#FFAD0D"/>
<path d="M18.4318 29.5526H18.165L19.4768 30.5288L19.8437 30.4646L18.5986 29.5398L18.4318 29.5526Z" fill="#FFAD0D"/>
<path d="M22.1674 13.9403L19.0769 11.5898H18.6211L21.0557 13.3623C21.4406 13.5159 21.8126 13.7094 22.1674 13.9403Z" fill="#FFAD0D"/>
<path d="M12.6293 26.726L12.3511 26.9316L12.4624 27.0858L12.7406 26.8802L12.6293 26.726Z" fill="#FFAD0D"/>
<path d="M24.1346 14.545L24.0679 14.4551H22.8784C23.1452 14.6607 23.4009 14.8791 23.6455 15.1104C24.7124 16.1799 25.4853 17.5868 25.8689 19.1578H26.0468C25.7795 17.4496 25.1189 15.8562 24.1346 14.545Z" fill="#FFAD0D"/>
<path d="M21.0557 15.3803C20.6177 14.7578 20.0651 14.256 19.4382 13.9115C18.8112 13.567 18.1257 13.3884 17.4315 13.3887H17.3648C16.6782 13.3995 16.0005 13.57 15.3721 13.8901C14.7437 14.2102 14.1775 14.6733 13.7074 15.2518C13.2402 15.8241 12.8805 16.502 12.6509 17.2428C12.4214 17.9835 12.3269 18.7712 12.3733 19.5562C12.4552 20.6294 12.757 21.6647 13.2539 22.5764C13.7507 23.488 14.4282 24.2497 15.2304 24.7986L15.8196 24.3746C15.2119 24.1736 14.6526 23.813 14.1854 23.3209C13.7515 22.8386 13.4165 22.2501 13.2049 21.5987C12.9933 20.9473 12.9105 20.2494 12.9625 19.5562C13.0563 18.2346 13.5619 16.9973 14.3855 16.0741C15.2091 15.2044 16.2827 14.7191 17.3982 14.7121H17.4871C18.5938 14.7415 19.6609 15.1932 20.522 15.997C21.0123 16.4067 21.4153 16.9402 21.7004 17.5569C21.9855 18.1737 22.1452 18.8574 22.1674 19.5562V19.6718L22.2785 19.5947C22.2999 18.0696 21.8683 16.5821 21.0557 15.3803Z" fill="#FFAD0D"/>
<path d="M20.5441 23.2438C19.6318 24.0206 18.5409 24.4677 17.4091 24.5287H17.0645C16.7432 24.5277 16.4229 24.489 16.1084 24.4131L15.4414 24.8885C16.0489 25.2679 16.7201 25.4914 17.4091 25.5438H17.6426C18.2816 25.5285 18.9104 25.3542 19.4859 25.0327C20.0615 24.7112 20.5702 24.25 20.9776 23.6807C21.6831 22.6502 22.0983 21.3946 22.1671 20.0829L22.0448 20.1729C21.9016 21.3802 21.3647 22.4787 20.5441 23.2438Z" fill="#FFAD0D"/>
<path d="M15.7979 24.3745L15.208 24.7989L15.4417 24.9404L16.1095 24.4645L15.7979 24.3745Z" fill="#FFAD0D"/>
<path d="M22.0894 20.1736L22.2118 20.0835C22.2118 19.9163 22.2118 19.7619 22.2118 19.5947L22.1005 19.6719C22.1078 19.8392 22.1041 20.0069 22.0894 20.1736Z" fill="#FFAD0D"/>
<path d="M9.6495 21.2009L7.79297 21.4707L9.73843 22.9226L9.6495 21.2009Z" fill="#FFAD0D"/>
<path d="M9.53833 23.1539L7.35941 21.5349L0 22.6399L9.53833 23.1539Z" fill="#FFAD0D"/>
<path d="M9.76064 23.1667L9.7384 22.9226L7.79294 21.4706L7.35938 21.5349L9.5383 23.1539L9.76064 23.1667Z" fill="#FFAD0D"/>
<path d="M32.9839 22.1517L33.8177 22.7807L36.3078 22.6395L32.9839 22.1517Z" fill="#FFAD0D"/>
<path d="M26.6141 21.2009L26.5029 23.166L33.551 22.7936L32.6395 22.1L26.6141 21.2009Z" fill="#FFAD0D"/>
<path d="M32.6836 22.1002L33.5952 22.7938H33.8175L32.9838 22.1644L32.6836 22.1002Z" fill="#FFAD0D"/>
<path d="M18.9987 11.1529L17.7536 0L17.3423 10.292L18.5318 11.1915L18.9987 11.1529Z" fill="#FFAD0D"/>
<path d="M17.3312 10.6004L17.2979 11.2819L18.1548 11.2176L17.3312 10.6004Z" fill="#FFAD0D"/>
<path d="M18.5317 11.1911L17.3422 10.2921L17.3311 10.6003L18.1537 11.2168L18.5317 11.1911Z" fill="#FFAD0D"/>
<path d="M13.6182 7.46528L13.0513 5.82062L13.307 7.22115L13.6182 7.46528Z" fill="#FFAD0D"/>
<path d="M14.1072 11.7439L14.9744 11.4226L13.7849 7.9534L13.3735 7.64502L14.1072 11.7439Z" fill="#FFAD0D"/>
<path d="M13.3739 7.64546L13.7857 7.95406L13.6187 7.46544L13.3071 7.22113L13.3739 7.64546Z" fill="#FFAD0D"/>
<path d="M22.1226 11.7697L22.923 12.258L25.0797 6.7843L22.1226 11.7697Z" fill="#FFAD0D"/>
<path d="M26.8809 19.1315L26.9376 19.1193H26.8809V19.1315Z" fill="#FFAD0D"/>
<path d="M28.6372 18.5283L31.8723 17.4105L28.5928 17.8473L28.6372 18.5283Z" fill="#FFAD0D"/>
<path d="M26.6807 18.1042L26.8808 19.1193H26.9364L28.6373 18.5282L28.5928 17.8472L26.6807 18.1042Z" fill="#FFAD0D"/>
<path d="M31.0497 28.5496L28.226 26.5845L27.7925 27.0982L31.0497 28.5496Z" fill="#FFAD0D"/>
<path d="M26.1914 26.3918L27.6033 27.0086L27.0363 26.3661L27.3698 25.9807L26.5694 25.4282L26.1914 26.3918Z" fill="#FFAD0D"/>
<path d="M22.1339 30.5935L21.2891 30.9917L21.6115 31.7752L22.6008 32.5073L22.1339 30.5935Z" fill="#FFAD0D"/>
<path d="M22.7009 32.9191L21.8115 32.2638L23.5458 36.414L22.7009 32.9191Z" fill="#FFAD0D"/>
<path d="M22.7008 32.9191L22.6007 32.5079L21.6113 31.7755L21.8114 32.2638L22.7008 32.9191Z" fill="#FFAD0D"/>
<path d="M9.68271 17.6802L4.47998 17.526L9.60489 18.721L9.68271 17.6802Z" fill="#FFAD0D"/>
<path d="M10.1386 26.8287L9.74947 25.8779L5.20264 28.8074L10.1386 26.8287Z" fill="#FFAD0D"/>
<path d="M12.6289 36.2084L15.5304 31.1845L14.7078 30.6962L12.6289 36.2084Z" fill="#FFAD0D"/>
<path d="M17.3646 32.3024L17.7536 32.7649L17.3979 33.1761L17.498 35.656L17.7536 35.9515L17.5202 36.2342L17.7536 42.0033L18.9987 30.8376L17.2979 30.7091L17.3646 32.3024Z" fill="#FFAD0D"/>
<path d="M25.0796 14.4423H27.303L32.5391 7.72229L25.0796 14.4423Z" fill="#FFAD0D"/>
<path d="M26.025 16.0869L27.3034 14.4423H26.0472H25.08L24.8354 14.6735L26.025 16.0869Z" fill="#FFAD0D"/>
<path d="M13.0959 28.8846L12.0954 27.3298L11.962 27.4326L5.3252 34.6537V34.7694L13.0959 28.8846Z" fill="#FFAD0D"/>
<path d="M12.0843 27.3041L11.9619 27.4317L12.0955 27.3296L12.0843 27.3041Z" fill="#FFAD0D"/>
<path d="M4.95801 35.0517L5.32527 34.7692V34.6537L4.95801 35.0517Z" fill="#FFAD0D"/>
<path d="M25.013 27.8438L24.2793 28.8846L24.8685 29.5656L24.5683 29.8996L27.4587 32.2767L27.7255 31.9683L28.4259 32.765L28.2592 32.9449L31.1384 35.3219L31.2496 35.2063L25.013 27.8438Z" fill="#FFAD0D"/>
<path d="M10.9614 15.5215L12.1954 14.1596L4.74707 6.86133L10.9614 15.5215Z" fill="#FFAD0D"/>
<path d="M24.8688 26.3662L24.5908 26.0449C24.383 26.3383 24.1603 26.6172 23.9238 26.8801L24.1684 27.1756L24.8688 26.3662Z" fill="#FFAD0D"/>
<path d="M27.6031 27.0085L27.7921 27.0985L28.2256 26.5845L27.3696 25.9806L27.0361 26.3661L27.6031 27.0085Z" fill="#FFAD0D"/>
<path d="M17.7204 29.5526C17.3171 29.5242 16.916 29.4641 16.5198 29.3727L16.353 29.5654L17.0423 30.3617L17.7315 29.5654L17.7204 29.5526Z" fill="#FFAD0D"/>
<path d="M20.8442 29.0387L20.1994 29.2571L19.9326 29.5655L20.5552 30.2851H20.7442L21.3111 29.6169L20.8442 29.0387Z" fill="#FFAD0D"/>
<path d="M24.2792 28.8845L23.9346 29.3726L24.5682 29.8992L24.8684 29.5653L24.2792 28.8845Z" fill="#FFAD0D"/>
<path d="M17.3647 32.3024L17.3981 33.1767L17.7543 32.7653L17.3647 32.3024Z" fill="#FFAD0D"/>
<path d="M27.7258 31.9683L27.459 32.2765L28.2594 32.9444L28.4261 32.7646L27.7258 31.9683Z" fill="#FFAD0D"/>
<path d="M17.498 35.6559L17.5204 36.2348L17.7547 35.9518L17.498 35.6559Z" fill="#FFAD0D"/>
</svg>
